<svg xmlns="http://www.w3.org/2000/svg" xmlns:xlink="http://www.w3.org/1999/xlink" width="500" zoomAndPan="magnify" viewBox="0 0 375 374.999991" height="500" preserveAspectRatio="xMidYMid meet" version="1.0"><defs><clipPath id="98011212bb"><path d="M 12.257812 37 L 182 37 L 182 105 L 12.257812 105 Z M 12.257812 37 " clip-rule="nonzero"/></clipPath><clipPath id="ba85595c07"><path d="M 122 100 L 260 100 L 260 348.074219 L 122 348.074219 Z M 122 100 " clip-rule="nonzero"/></clipPath><clipPath id="1bb64598a0"><path d="M 137 100 L 275 100 L 275 348.074219 L 137 348.074219 Z M 137 100 " clip-rule="nonzero"/></clipPath></defs><path fill="#14a422" d="M 212.683594 92.414062 C 212.683594 101.933594 204.972656 109.644531 195.457031 109.644531 C 185.949219 109.644531 178.230469 101.933594 178.230469 92.414062 C 178.230469 82.902344 185.949219 75.1875 195.457031 75.1875 C 204.972656 75.1875 212.683594 82.902344 212.683594 92.414062 " fill-opacity="1" fill-rule="nonzero"/><g clip-path="url(#98011212bb)"><path fill="#14a422" d="M 181.332031 84.773438 C 181.332031 84.773438 162.574219 84.59375 146.0625 60.574219 C 140.863281 53.007812 132.144531 45.316406 124.257812 41.730469 C 100.175781 30.792969 80.222656 43.605469 59.660156 55.5625 C 45.121094 64.03125 29.308594 70.210938 12.382812 71.144531 C 14.121094 71.042969 22.8125 79.007812 26.277344 79.90625 C 29.945312 80.851562 33.933594 80.90625 37.675781 80.722656 C 50.714844 80.070312 63.503906 74.261719 74.753906 68.078125 C 74.753906 68.078125 67.996094 84.59375 43.980469 89.09375 C 43.980469 89.09375 69.5 104.886719 101.019531 79.355469 C 101.019531 79.355469 99.519531 93.449219 79.253906 103.285156 C 79.253906 103.285156 107.03125 108.96875 126.542969 84.773438 C 126.542969 84.773438 128.042969 93.863281 117.535156 103.863281 C 117.535156 103.863281 130.300781 109.359375 150.566406 94.347656 C 150.566406 94.347656 170.082031 89.851562 181.332031 94.347656 L 181.332031 84.773438 " fill-opacity="1" fill-rule="nonzero"/></g><path fill="#14a422" d="M 206.023438 84.773438 C 206.023438 84.773438 224.78125 84.59375 241.296875 60.574219 C 246.496094 53.007812 255.214844 45.316406 263.105469 41.730469 C 287.1875 30.792969 307.144531 43.613281 327.695312 55.5625 C 342.230469 64.03125 358.050781 70.210938 374.976562 71.144531 C 373.242188 71.042969 364.546875 79.007812 361.082031 79.90625 C 357.414062 80.851562 353.429688 80.90625 349.683594 80.722656 C 336.640625 80.070312 323.847656 74.261719 312.605469 68.078125 C 312.605469 68.078125 319.363281 84.59375 343.382812 89.09375 C 343.382812 89.09375 317.859375 104.886719 286.332031 79.355469 C 286.332031 79.355469 287.839844 93.449219 308.101562 103.285156 C 308.101562 103.285156 280.332031 108.96875 260.816406 84.773438 C 260.816406 84.773438 259.316406 93.863281 269.824219 103.863281 C 269.824219 103.863281 257.058594 109.359375 236.796875 94.347656 C 236.796875 94.347656 217.277344 89.851562 206.023438 94.347656 L 206.023438 84.773438 " fill-opacity="1" fill-rule="nonzero"/><path fill="#14a422" d="M 200.496094 346.007812 L 193.871094 346.007812 L 186.847656 92.414062 L 204.074219 92.414062 L 200.496094 346.007812 " fill-opacity="1" fill-rule="nonzero"/><g clip-path="url(#ba85595c07)"><path fill="#14a422" d="M 182.285156 124.195312 C 182.285156 124.195312 181.824219 124.175781 180.933594 124.132812 C 180.484375 124.117188 179.929688 124.09375 179.273438 124.0625 C 178.679688 124.046875 177.996094 124.027344 177.226562 124.007812 C 174.167969 123.960938 169.496094 123.898438 164.316406 124.679688 C 159.101562 125.46875 153.492188 127.167969 149.308594 131.105469 C 148.738281 131.554688 148.273438 132.148438 147.773438 132.71875 C 147.226562 133.242188 146.824219 133.949219 146.351562 134.597656 L 145.992188 135.097656 L 145.902344 135.21875 C 146.214844 134.640625 145.953125 135.113281 146.015625 135.007812 L 145.953125 135.105469 L 145.734375 135.507812 C 145.441406 136.023438 145.148438 136.546875 144.855469 137.078125 C 144.710938 137.386719 144.570312 137.695312 144.40625 138 C 144.242188 138.285156 144.09375 138.746094 143.925781 139.117188 C 142.675781 142.253906 142.265625 145.371094 142.988281 148.648438 C 143.671875 151.914062 145.726562 155.460938 148.9375 158.679688 C 152.144531 161.90625 156.476562 164.71875 161.308594 166.734375 C 162.527344 167.21875 163.761719 167.6875 165.027344 168.066406 L 165.988281 168.359375 C 165.949219 168.347656 166.234375 168.421875 165.9375 168.355469 L 166.082031 168.394531 L 166.371094 168.464844 L 166.960938 168.613281 L 168.144531 168.914062 L 169.136719 169.128906 C 169.757812 169.265625 170.40625 169.410156 171.152344 169.542969 C 171.878906 169.667969 172.597656 169.8125 173.347656 169.910156 C 174.828125 170.148438 176.363281 170.34375 177.917969 170.523438 C 184.15625 171.222656 190.878906 171.527344 197.890625 171.964844 C 204.917969 172.417969 212.265625 172.964844 219.871094 174.402344 C 227.429688 175.847656 235.417969 178.253906 242.65625 182.9375 C 246.242188 185.28125 249.628906 188.113281 252.355469 191.511719 L 253.246094 192.5625 C 253.566406 193 253.953125 193.570312 254.292969 194.070312 C 254.960938 195.105469 255.757812 196.167969 256.253906 197.207031 L 257.757812 200.355469 C 258.152344 201.464844 258.5 202.601562 258.855469 203.71875 C 260.085938 208.285156 260.191406 213.253906 259.011719 217.898438 C 257.835938 222.535156 255.449219 226.828125 252.285156 230.179688 C 249.101562 233.527344 245.296875 236.003906 241.339844 237.828125 C 239.328125 238.589844 237.332031 239.464844 235.273438 239.902344 C 234.226562 240.15625 233.269531 240.445312 232.160156 240.652344 L 229.4375 241.140625 C 221.691406 242.429688 214.335938 242.925781 207.132812 243.582031 C 199.957031 244.238281 193.011719 245.039062 186.492188 246.75 C 183.246094 247.613281 180.070312 248.632812 177.09375 250.011719 L 175.976562 250.5 L 175.828125 250.558594 C 175.894531 250.515625 175.476562 250.742188 175.945312 250.484375 L 175.65625 250.648438 L 175.089844 250.976562 L 173.949219 251.628906 L 173.386719 251.960938 L 173.101562 252.125 L 172.910156 252.28125 C 172.414062 252.699219 171.902344 253.109375 171.378906 253.5 C 170.855469 253.921875 170.355469 254.527344 169.835938 255.03125 C 167.878906 257.214844 166.167969 259.75 165.164062 262.5625 C 164.820312 263.238281 164.710938 263.984375 164.472656 264.6875 C 164.25 265.40625 164.035156 266.117188 163.953125 266.851562 L 163.613281 268.871094 C 163.578125 269.703125 163.546875 270.542969 163.507812 271.375 L 163.488281 271.996094 L 163.546875 272.492188 L 163.636719 273.488281 L 163.707031 274.488281 L 163.941406 275.519531 C 164.171875 276.925781 164.691406 278.230469 165.230469 279.515625 C 166.371094 282.070312 168.222656 284.25 170.378906 286.0625 C 172.554688 287.847656 175.0625 289.285156 177.734375 290.273438 C 180.40625 291.246094 183.199219 291.882812 185.992188 292.191406 C 187.394531 292.265625 188.789062 292.429688 190.171875 292.351562 C 191.515625 292.335938 193.070312 292.265625 194.480469 292.203125 C 195.914062 292.128906 197.449219 292.175781 198.894531 292.160156 C 200.355469 292.246094 201.792969 292.230469 203.21875 292.394531 C 208.902344 292.878906 214.4375 294.074219 219.136719 296.722656 C 221.476562 298.039062 223.570312 299.722656 225.183594 301.738281 C 226.804688 303.75 227.929688 306.054688 228.492188 308.378906 C 229.070312 310.710938 229.179688 313.019531 229.070312 315.195312 C 228.859375 317.367188 228.546875 319.441406 227.96875 321.351562 C 226.917969 325.195312 225.398438 328.511719 223.890625 331.394531 C 220.820312 337.160156 217.765625 341.265625 215.648438 344.015625 C 214.617188 345.410156 213.738281 346.410156 213.1875 347.113281 C 212.617188 347.808594 212.328125 348.171875 212.328125 348.171875 C 212.328125 348.171875 212.597656 347.792969 213.128906 347.074219 C 213.648438 346.34375 214.472656 345.300781 215.4375 343.855469 C 217.40625 341.011719 220.238281 336.769531 222.972656 330.945312 C 224.308594 328.03125 225.621094 324.710938 226.449219 320.976562 C 226.914062 319.121094 227.101562 317.144531 227.195312 315.121094 C 227.195312 313.09375 226.980469 311.007812 226.375 308.976562 C 225.195312 304.882812 222.03125 301.371094 217.765625 299.308594 C 213.507812 297.175781 208.351562 296.296875 202.996094 296.117188 C 201.667969 296.027344 200.289062 296.109375 198.917969 296.097656 C 197.535156 296.1875 196.214844 296.199219 194.761719 296.347656 C 193.292969 296.484375 191.941406 296.621094 190.351562 296.722656 C 188.796875 296.875 187.226562 296.785156 185.648438 296.773438 C 182.476562 296.589844 179.265625 296.035156 176.078125 295.050781 C 172.898438 294.054688 169.792969 292.507812 166.960938 290.40625 C 164.148438 288.292969 161.570312 285.5625 159.851562 282.226562 C 159.039062 280.550781 158.265625 278.820312 157.84375 276.976562 L 157.472656 275.609375 L 157.273438 274.144531 L 157.089844 272.65625 L 157 271.90625 L 156.996094 271.28125 C 156.984375 270.445312 156.980469 269.605469 156.972656 268.765625 L 156.972656 268.613281 C 156.960938 268.605469 156.988281 268.117188 156.988281 268.242188 L 157.261719 265.78125 C 157.339844 264.832031 157.554688 263.90625 157.785156 262.988281 C 158.03125 262.070312 158.167969 261.113281 158.535156 260.230469 L 159.53125 257.519531 C 159.9375 256.652344 160.398438 255.792969 160.839844 254.925781 C 161.242188 254.035156 161.835938 253.25 162.375 252.425781 C 162.925781 251.605469 163.464844 250.785156 164.160156 250.054688 C 164.839844 249.3125 165.425781 248.542969 166.207031 247.820312 C 167.023438 247.101562 167.859375 246.394531 168.707031 245.699219 L 169.023438 245.4375 L 169.304688 245.261719 L 169.847656 244.902344 L 170.957031 244.191406 L 171.507812 243.839844 L 171.785156 243.65625 C 172.34375 243.339844 172.03125 243.519531 172.195312 243.429688 L 172.363281 243.347656 L 173.613281 242.722656 C 176.960938 240.972656 180.507812 239.625 184.097656 238.480469 C 191.300781 236.199219 198.726562 234.988281 206.003906 233.945312 C 213.257812 232.921875 220.535156 232.023438 227.265625 230.546875 L 229.96875 229.929688 C 230.660156 229.75 231.453125 229.464844 232.199219 229.242188 C 233.746094 228.863281 235.097656 228.117188 236.523438 227.539062 C 239.191406 226.105469 241.570312 224.332031 243.398438 222.21875 C 247.011719 217.925781 247.996094 212.378906 246.339844 207.382812 L 245.625 205.527344 C 245.289062 204.929688 244.957031 204.34375 244.640625 203.75 C 244.503906 203.417969 244.300781 203.214844 244.132812 202.976562 L 243.617188 202.269531 C 243.429688 202.019531 243.328125 201.804688 243.09375 201.515625 L 242.160156 200.515625 C 240.191406 198.265625 237.789062 196.480469 235.207031 194.976562 C 230.019531 191.964844 223.832031 190.332031 217.359375 189.441406 C 210.871094 188.542969 204.105469 188.351562 197.273438 188.261719 C 190.433594 188.175781 183.511719 188.222656 176.441406 187.789062 C 174.675781 187.683594 172.898438 187.546875 171.105469 187.355469 C 170.226562 187.273438 169.316406 187.15625 168.414062 187.035156 C 167.542969 186.9375 166.582031 186.777344 165.605469 186.609375 L 164.195312 186.371094 L 163.007812 186.128906 L 162.402344 186.007812 L 162.109375 185.953125 L 161.957031 185.921875 L 161.613281 185.835938 L 160.230469 185.5 C 158.390625 185.046875 156.597656 184.480469 154.824219 183.871094 C 147.796875 181.347656 141.3125 177.707031 135.777344 172.734375 C 130.292969 167.804688 125.660156 161.367188 123.542969 153.855469 C 122.476562 150.128906 122.046875 146.246094 122.222656 142.535156 C 122.390625 138.8125 123.144531 135.289062 124.210938 132.09375 C 124.503906 131.28125 124.722656 130.542969 125.089844 129.695312 C 125.453125 128.867188 125.8125 128.039062 126.171875 127.226562 C 126.453125 126.660156 126.730469 126.101562 127.003906 125.554688 L 127.257812 125.046875 C 127.347656 124.875 127.121094 125.28125 127.476562 124.640625 L 127.632812 124.382812 L 128.253906 123.359375 C 129.089844 122.015625 129.875 120.660156 130.878906 119.445312 C 131.839844 118.203125 132.785156 116.980469 133.882812 115.910156 C 138.09375 111.453125 142.996094 108.339844 147.550781 106.269531 C 152.121094 104.199219 156.414062 102.96875 160.167969 102.226562 C 163.929688 101.46875 167.242188 101.054688 170.058594 100.824219 C 172.898438 100.566406 175.199219 100.476562 177.15625 100.421875 C 178.121094 100.394531 178.972656 100.382812 179.707031 100.363281 C 180.367188 100.363281 180.925781 100.351562 181.371094 100.351562 C 182.265625 100.34375 182.730469 100.34375 182.730469 100.34375 L 182.738281 100.34375 C 189.328125 100.304688 194.707031 105.609375 194.742188 112.199219 C 194.785156 118.789062 189.480469 124.160156 182.894531 124.207031 C 182.703125 124.207031 182.476562 124.203125 182.285156 124.195312 " fill-opacity="1" fill-rule="nonzero"/></g><g clip-path="url(#1bb64598a0)"><path fill="#14a422" d="M 214.304688 100.34375 C 214.304688 100.34375 214.773438 100.34375 215.664062 100.351562 C 216.117188 100.351562 216.667969 100.363281 217.335938 100.363281 C 218.066406 100.382812 218.917969 100.394531 219.882812 100.421875 C 221.839844 100.476562 224.132812 100.566406 226.976562 100.824219 C 229.796875 101.054688 233.101562 101.46875 236.871094 102.226562 C 240.625 102.96875 244.910156 104.199219 249.488281 106.269531 C 254.042969 108.339844 258.949219 111.453125 263.160156 115.910156 C 264.261719 116.980469 265.203125 118.203125 266.15625 119.445312 C 267.164062 120.660156 267.945312 122.015625 268.78125 123.359375 L 269.40625 124.382812 L 269.5625 124.640625 C 269.917969 125.28125 269.6875 124.875 269.777344 125.046875 L 270.03125 125.554688 C 270.3125 126.101562 270.589844 126.660156 270.863281 127.226562 C 271.222656 128.039062 271.582031 128.867188 271.949219 129.695312 C 272.320312 130.542969 272.527344 131.28125 272.828125 132.09375 C 273.898438 135.289062 274.648438 138.8125 274.816406 142.535156 C 274.992188 146.246094 274.5625 150.128906 273.492188 153.855469 C 271.378906 161.367188 266.742188 167.804688 261.257812 172.734375 C 255.730469 177.707031 249.238281 181.347656 242.210938 183.871094 C 240.445312 184.480469 238.652344 185.046875 236.808594 185.5 L 235.425781 185.835938 L 235.082031 185.921875 L 234.929688 185.953125 L 234.628906 186.007812 L 234.035156 186.128906 L 232.839844 186.371094 L 231.425781 186.609375 C 230.457031 186.777344 229.496094 186.9375 228.625 187.035156 C 227.71875 187.15625 226.824219 187.273438 225.929688 187.355469 C 224.136719 187.546875 222.363281 187.683594 220.589844 187.789062 C 213.527344 188.222656 206.601562 188.175781 199.761719 188.261719 C 192.933594 188.351562 186.171875 188.542969 179.679688 189.441406 C 173.203125 190.332031 167.019531 191.964844 161.832031 194.976562 C 159.25 196.480469 156.84375 198.265625 154.875 200.515625 L 153.941406 201.515625 C 153.710938 201.804688 153.601562 202.019531 153.421875 202.269531 L 152.910156 202.976562 C 152.730469 203.214844 152.539062 203.417969 152.394531 203.75 C 152.082031 204.34375 151.753906 204.929688 151.40625 205.527344 L 150.703125 207.382812 C 149.042969 212.378906 150.027344 217.925781 153.640625 222.21875 C 155.464844 224.332031 157.839844 226.105469 160.515625 227.539062 C 161.945312 228.117188 163.289062 228.863281 164.847656 229.242188 C 165.585938 229.464844 166.382812 229.75 167.074219 229.929688 L 169.769531 230.546875 C 176.503906 232.023438 183.78125 232.921875 191.03125 233.945312 C 198.3125 234.988281 205.738281 236.199219 212.941406 238.480469 C 216.527344 239.625 220.078125 240.972656 223.421875 242.722656 L 224.683594 243.347656 L 224.839844 243.429688 C 225.007812 243.519531 224.6875 243.339844 225.253906 243.65625 L 225.527344 243.839844 L 226.082031 244.191406 L 227.1875 244.902344 L 227.734375 245.261719 L 228.015625 245.4375 L 228.332031 245.699219 C 229.179688 246.394531 230.015625 247.101562 230.835938 247.820312 C 231.609375 248.542969 232.199219 249.3125 232.875 250.054688 C 233.570312 250.785156 234.113281 251.605469 234.65625 252.425781 C 235.199219 253.25 235.796875 254.035156 236.203125 254.925781 C 236.640625 255.792969 237.09375 256.652344 237.503906 257.519531 L 238.5 260.230469 C 238.871094 261.113281 239.003906 262.070312 239.25 262.988281 C 239.484375 263.90625 239.699219 264.832031 239.769531 265.78125 L 239.9375 267.1875 L 240.011719 267.890625 L 240.050781 268.242188 C 240.050781 268.117188 240.074219 268.605469 240.066406 268.613281 L 240.066406 268.765625 C 240.058594 269.605469 240.050781 270.445312 240.042969 271.28125 L 240.035156 271.90625 L 239.949219 272.65625 L 239.765625 274.144531 L 239.558594 275.609375 L 239.191406 276.976562 C 238.773438 278.820312 238 280.550781 237.1875 282.226562 C 235.472656 285.5625 232.890625 288.292969 230.082031 290.40625 C 227.238281 292.507812 224.132812 294.054688 220.957031 295.050781 C 217.777344 296.035156 214.558594 296.589844 211.386719 296.773438 C 209.804688 296.785156 208.234375 296.875 206.6875 296.722656 C 205.097656 296.621094 203.742188 296.484375 202.28125 296.347656 C 200.824219 296.199219 199.5 296.1875 198.125 296.097656 C 196.753906 296.109375 195.382812 296.027344 194.042969 296.117188 C 188.6875 296.296875 183.527344 297.175781 179.277344 299.308594 C 175.003906 301.371094 171.835938 304.882812 170.667969 308.976562 C 170.050781 311.007812 169.839844 313.09375 169.839844 315.121094 C 169.9375 317.144531 170.121094 319.121094 170.589844 320.976562 C 171.410156 324.710938 172.726562 328.03125 174.074219 330.945312 C 176.796875 336.769531 179.632812 341.011719 181.605469 343.855469 C 182.558594 345.300781 183.390625 346.34375 183.902344 347.074219 C 184.4375 347.792969 184.710938 348.171875 184.710938 348.171875 C 184.710938 348.171875 184.421875 347.808594 183.859375 347.113281 C 183.296875 346.410156 182.417969 345.410156 181.386719 344.015625 C 179.273438 341.265625 176.214844 337.160156 173.152344 331.394531 C 171.640625 328.511719 170.121094 325.195312 169.066406 321.351562 C 168.488281 319.441406 168.175781 317.367188 167.96875 315.195312 C 167.859375 313.019531 167.964844 310.710938 168.542969 308.378906 C 169.109375 306.054688 170.234375 303.75 171.851562 301.738281 C 173.464844 299.722656 175.5625 298.039062 177.894531 296.722656 C 182.601562 294.074219 188.140625 292.878906 193.816406 292.394531 C 195.246094 292.230469 196.683594 292.246094 198.140625 292.160156 C 199.585938 292.175781 201.121094 292.128906 202.554688 292.203125 C 203.960938 292.265625 205.519531 292.335938 206.867188 292.351562 C 208.246094 292.429688 209.648438 292.265625 211.046875 292.191406 C 213.84375 291.882812 216.628906 291.246094 219.304688 290.273438 C 221.984375 289.285156 224.484375 287.847656 226.660156 286.0625 C 228.8125 284.25 230.667969 282.070312 231.808594 279.515625 C 232.335938 278.230469 232.863281 276.925781 233.09375 275.519531 L 233.332031 274.488281 L 233.40625 273.488281 L 233.496094 272.492188 L 233.550781 271.996094 L 233.523438 271.375 C 233.492188 270.542969 233.460938 269.703125 233.425781 268.871094 L 233.082031 266.851562 C 233 266.117188 232.785156 265.40625 232.5625 264.6875 C 232.328125 263.984375 232.214844 263.238281 231.871094 262.5625 C 230.867188 259.75 229.15625 257.214844 227.199219 255.03125 C 226.679688 254.527344 226.179688 253.921875 225.660156 253.5 C 225.132812 253.109375 224.625 252.699219 224.125 252.28125 L 223.9375 252.125 L 223.652344 251.960938 L 223.085938 251.628906 L 221.945312 250.976562 L 221.089844 250.484375 C 221.558594 250.742188 221.140625 250.515625 221.210938 250.558594 L 221.070312 250.5 L 219.945312 250.011719 C 216.964844 248.632812 213.792969 247.613281 210.542969 246.75 C 204.027344 245.039062 197.085938 244.238281 189.914062 243.582031 C 182.703125 242.925781 175.34375 242.429688 167.601562 241.140625 L 164.878906 240.652344 C 163.769531 240.445312 162.808594 240.15625 161.765625 239.902344 C 159.703125 239.464844 157.703125 238.589844 155.6875 237.828125 C 151.746094 236.003906 147.9375 233.527344 144.761719 230.179688 C 141.582031 226.828125 139.203125 222.535156 138.03125 217.898438 C 136.847656 213.253906 136.949219 208.285156 138.179688 203.71875 C 138.535156 202.601562 138.882812 201.464844 139.28125 200.355469 L 140.785156 197.207031 C 141.28125 196.167969 142.074219 195.105469 142.742188 194.070312 C 143.089844 193.570312 143.464844 193 143.800781 192.5625 L 144.683594 191.511719 C 147.414062 188.113281 150.796875 185.28125 154.378906 182.9375 C 161.617188 178.253906 169.609375 175.847656 177.167969 174.402344 C 184.773438 172.964844 192.125 172.417969 199.144531 171.964844 C 206.160156 171.527344 212.886719 171.222656 219.121094 170.523438 C 220.675781 170.34375 222.207031 170.148438 223.6875 169.910156 C 224.433594 169.8125 225.15625 169.667969 225.875 169.542969 C 226.636719 169.410156 227.28125 169.265625 227.910156 169.128906 L 228.894531 168.914062 L 230.074219 168.613281 L 230.664062 168.464844 L 230.957031 168.394531 L 231.109375 168.355469 C 230.800781 168.421875 231.089844 168.347656 231.050781 168.359375 L 232.007812 168.066406 C 233.28125 167.6875 234.511719 167.21875 235.730469 166.734375 C 240.558594 164.71875 244.898438 161.90625 248.097656 158.679688 C 251.308594 155.460938 253.363281 151.914062 254.046875 148.648438 C 254.777344 145.371094 254.367188 142.253906 253.113281 139.117188 C 252.945312 138.746094 252.792969 138.285156 252.632812 138 C 252.472656 137.695312 252.328125 137.386719 252.1875 137.078125 C 251.894531 136.546875 251.597656 136.023438 251.304688 135.507812 L 251.078125 135.105469 L 251.023438 135.007812 C 251.078125 135.113281 250.816406 134.640625 251.136719 135.21875 L 251.046875 135.097656 L 250.679688 134.597656 C 250.210938 133.949219 249.808594 133.242188 249.269531 132.71875 C 248.765625 132.148438 248.304688 131.554688 247.734375 131.105469 C 243.546875 127.167969 237.941406 125.46875 232.730469 124.679688 C 227.539062 123.898438 222.867188 123.960938 219.808594 124.007812 C 219.039062 124.027344 218.359375 124.046875 217.773438 124.0625 C 217.109375 124.09375 216.558594 124.117188 216.105469 124.132812 C 215.210938 124.175781 214.746094 124.195312 214.746094 124.195312 C 208.167969 124.484375 202.59375 119.382812 202.304688 112.800781 C 202.015625 106.21875 207.121094 100.644531 213.695312 100.351562 C 213.886719 100.34375 214.074219 100.34375 214.257812 100.34375 L 214.304688 100.34375 " fill-opacity="1" fill-rule="nonzero"/></g></svg>